<svg id="Layer_1" data-name="Layer 1" xmlns="http://www.w3.org/2000/svg" viewBox="0 0 225.61 281.15"><title>logo</title><polyline points="118.18 276.06 220.61 276.06 220.61 5 5 5 5 276.06 109.45 276.06" style="fill:none;stroke:#1d1d1b;stroke-miterlimit:10;stroke-width:10px"/><polyline points="121.51 264.01 209.17 265.14 209.17 19.04 15.95 17.91 15.95 264.01 108.29 264.01" style="fill:#fff;stroke:#1d1d1b;stroke-miterlimit:10;stroke-width:10px"/><line x1="106.75" y1="281.15" x2="106.75" y2="155.35" style="fill:none;stroke:#1d1d1b;stroke-miterlimit:10;stroke-width:10px"/><line x1="121.37" y1="281.15" x2="121.37" y2="153.12" style="fill:none;stroke:#1d1d1b;stroke-miterlimit:10;stroke-width:10px"/><polygon points="113.83 41.85 135.35 85.47 183.49 92.46 148.66 126.42 156.88 172.84 113.83 150.21 70.77 174.36 79 126.42 44.16 92.46 92.3 85.47 113.83 41.85" style="fill:none;stroke:#1d1d1b;stroke-miterlimit:10;stroke-width:10px"/><text transform="translate(88.89 140.96)" style="font-size:77.46511840820312px;fill:#1d1d1b;font-family:CastIron-Condensed, Cast Iron">MM</text><polygon points="91.25 140.72 74.68 168.42 105.99 153.57 95.99 140.53 91.25 140.72" style="fill:#1d1d1b"/><polygon points="138.38 140.96 153.01 167.61 125.61 153.2 133.34 140.96 138.38 140.96" style="fill:#1d1d1b"/><polygon points="107.44 140.96 104.08 151.08 105.99 153.57 115.03 147.27 112.37 140.96 107.44 140.96" style="fill:#1d1d1b"/><path d="M229,308" transform="translate(-184.83 -229.43)" style="fill:#1d1d1b"/><polygon points="117.07 140.84 115.03 147.27 124.07 152.12 122 140.84 117.07 140.84" style="fill:#1d1d1b"/><polygon points="107.3 87.06 113.83 47.46 122.15 87.06 107.3 87.06" style="fill:#1d1d1b"/><polygon points="111.36 84.12 112.32 145.45 114.7 149.54 118.51 146.48 119.55 83.26 111.36 84.12" style="fill:#1d1d1b"/><polygon points="96.17 86.44 94.53 83.53 91.17 87.46 92.41 89.21 96.17 86.44" style="fill:#1d1d1b"/><polygon points="82.11 125.17 93.67 107.42 91.17 86.37 45.02 92.34 82.11 125.17" style="fill:#1d1d1b"/><polygon points="80.55 123.79 72.75 170.03 92.27 155.35 94.37 104.19 80.55 123.79" style="fill:#1d1d1b"/><polygon points="136.82 142.6 136.82 85.68 181.87 94.05 149.73 128.4 156.63 171.44 136.82 148.73 136.82 142.6" style="fill:#1d1d1b"/><polygon points="99.21 132.75 101.87 150.18 104.38 132.75 99.21 132.75" style="fill:#1d1d1b"/><polygon points="125.12 132.75 127.77 150.18 130.28 132.75 125.12 132.75" style="fill:#1d1d1b"/></svg>